<?xml version="1.0" encoding="utf-8"?>
<!-- Generator: Adobe Illustrator 27.5.0, SVG Export Plug-In . SVG Version: 6.00 Build 0)  -->
<svg version="1.1" id="Layer_1" xmlns="http://www.w3.org/2000/svg" xmlns:xlink="http://www.w3.org/1999/xlink" x="0px" y="0px"
	 viewBox="0 0 5000 5000" style="enable-background:new 0 0 5000 5000;" xml:space="preserve">
<rect style="fill:#1E4D6C;" width="5000" height="5000"/>
<g>
	<g>
		<g>
			<g>
				<g>
					<path style="fill:#346A89;" d="M1957.83,1353.26l97.373-34.497l-35.115-99.148l-97.451,34.513
						c-19.436-32.909-44.6-60.875-74.285-82.802l44.278-92.94l-94.915-45.454l-44.359,93.11
						c-35.686-9.344-73.332-11.209-111.057-5.456l-34.584-97.59l-99.116,35.116l34.582,97.607
						c-33.101,19.257-61.013,44.346-82.788,74l-93.242-44.295l-45.231,95.076l93.115,44.413
						c-9.429,35.533-11.291,73.229-5.579,110.975l-97.386,34.513l35.147,99.207l97.44-34.522
						c19.347,32.822,44.465,60.865,74.182,82.678l-44.294,93.235l94.833,45.258l44.657-92.979
						c35.396,9.138,73.045,11.165,111.056,5.452l34.479,97.364l99.195-35.219l-34.49-97.311
						c32.768-19.425,60.761-44.646,82.793-74.135l93.03,44.188l45.253-94.867l-93.112-44.458
						C1961.535,1428.685,1963.509,1390.998,1957.83,1353.26z M1683.64,1583.756c-104.502,0-189.215-84.713-189.215-189.21
						c0-104.502,84.712-189.215,189.215-189.215c104.495,0,189.207,84.713,189.207,189.215
						C1872.847,1499.043,1788.135,1583.756,1683.64,1583.756z"/>
				</g>
			</g>
		</g>
	</g>
	<g>
		<rect x="529.81" y="1346.142" style="fill:#BFBDBD;" width="1150.486" height="145.391"/>
		<rect x="529.81" y="1491.533" style="fill:#6DBAC1;" width="1150.486" height="1137.844"/>
	</g>
	<g>
		<g>
			<g>
				<rect x="664.756" y="1568.237" style="fill:#183C51;" width="610.296" height="29.835"/>
			</g>
			<g>
				<rect x="785.281" y="1620.593" style="fill:#183C51;" width="409.576" height="29.835"/>
			</g>
			<g>
				<rect x="739.883" y="1672.947" style="fill:#183C51;" width="832.714" height="29.835"/>
			</g>
			<g>
				<rect x="758.87" y="1725.303" style="fill:#183C51;" width="184.445" height="29.835"/>
			</g>
		</g>
	</g>
	<g>
		<g>
			<g>
				<rect x="710.155" y="1855.669" style="fill:#183C51;" width="409.576" height="29.835"/>
			</g>
			<g>
				<rect x="664.756" y="1905.801" style="fill:#183C51;" width="832.712" height="29.836"/>
			</g>
			<g>
				<rect x="721.722" y="1955.935" style="fill:#183C51;" width="676.641" height="29.835"/>
			</g>
		</g>
	</g>
	<g>
		<g>
			<g>
				<rect x="664.756" y="2112.48" style="fill:#183C51;" width="610.296" height="29.836"/>
			</g>
			<g>
				<rect x="739.883" y="2217.191" style="fill:#183C51;" width="832.714" height="29.835"/>
			</g>
			<g>
				<rect x="777.856" y="2163.761" style="fill:#183C51;" width="184.445" height="29.837"/>
			</g>
		</g>
	</g>
	<g>
		<g>
			<g>
				<rect x="664.756" y="2371.515" style="fill:#183C51;" width="610.296" height="29.835"/>
			</g>
			<g>
				<rect x="739.883" y="2476.225" style="fill:#183C51;" width="645.554" height="29.836"/>
			</g>
			<g>
				<rect x="777.856" y="2422.796" style="fill:#183C51;" width="298.371" height="29.835"/>
			</g>
		</g>
	</g>
	<g>
		<g>
			<g>
				<g>
					<path style="fill:#346A89;" d="M1500.708,3687.942l155.012-54.916l-55.899-157.839l-155.14,54.941
						c-30.94-52.389-70.999-96.91-118.257-131.816l70.487-147.955l-151.095-72.36l-70.617,148.226
						c-56.812-14.875-116.744-17.844-176.798-8.684l-55.057-155.359l-157.784,55.902l55.049,155.386
						c-52.694,30.656-97.129,70.595-131.792,117.805l-148.434-70.517l-72.006,151.355l148.232,70.703
						c-15.01,56.568-17.972,116.576-8.881,176.666l-155.031,54.943l55.95,157.93l155.121-54.957
						c30.797,52.25,70.788,96.894,118.095,131.619l-70.517,148.423l150.974,72.049l71.088-148.017
						c56.351,14.547,116.284,17.773,176.798,8.678l54.887,154.999l157.914-56.067l-54.905-154.912
						c52.163-30.924,96.726-71.074,131.8-118.018L1568,4086.493l72.038-151.022l-148.231-70.773
						C1506.606,3808.014,1509.749,3748.019,1500.708,3687.942z M1064.213,4054.879c-166.36,0-301.218-134.859-301.218-301.214
						c0-166.359,134.858-301.219,301.218-301.219c166.349,0,301.208,134.859,301.208,301.219
						C1365.421,3920.02,1230.563,4054.879,1064.213,4054.879z"/>
				</g>
			</g>
		</g>
	</g>
	<g>
		<path style="fill:#FFFFFF;" d="M2431.905,1995.01c-15.795-7.197-22.27-23.215-15.2-38.718
			c7.063-15.499,22.969-20.962,39.054-13.631c15.5,7.067,22.11,22.792,14.915,38.583
			C2463.741,1996.448,2447.402,2002.073,2431.905,1995.01z"/>
		<path style="fill:#2EBEC7;" d="M2498.646,1867.91c-14.308-9.823-17.902-26.725-8.269-40.762
			c9.649-14.046,26.265-16.671,40.839-6.666c14.039,9.644,17.822,26.275,7.996,40.584
			C2529.761,1874.844,2512.69,1877.553,2498.646,1867.91z"/>
		<path style="fill:#EC5624;" d="M2586.357,1754.336c-12.392-12.156-13.004-29.422-1.071-41.577
			c11.933-12.159,28.753-11.862,41.368,0.521c12.159,11.93,12.999,28.971,0.844,41.354
			C2615.794,1766.566,2598.513,1766.271,2586.357,1754.336z"/>
		<path style="fill:#FFFFFF;" d="M2692.477,1657.739c-10.075-14.132-7.666-31.244,6.199-41.13
			c13.881-9.886,30.389-6.652,40.648,7.739c9.886,13.871,7.741,30.796-6.395,40.869
			C2719.319,1674.917,2702.357,1671.611,2692.477,1657.739z"/>
		<path style="fill:#2EBEC7;" d="M2813.825,1581.217c-7.438-15.684-2.063-32.107,13.323-39.407
			c15.397-7.305,31.082-1.227,38.656,14.742c7.303,15.392,2.22,31.674-13.465,39.116
			C2837.24,1602.833,2821.129,1596.603,2813.825,1581.217z"/>
		<path style="fill:#EC5624;" d="M2946.754,1527.093c-4.597-16.734,3.541-31.975,19.973-36.491
			c16.42-4.517,30.815,4.19,35.499,21.234c4.521,16.425-3.313,31.577-20.048,36.185
			C2966.065,1552.45,2951.274,1543.516,2946.754,1527.093z"/>
		<path style="fill:#FFFFFF;" d="M3087.072,1496.741c-1.646-17.277,8.998-30.888,25.955-32.505
			c16.962-1.617,29.641,9.442,31.319,27.039c1.613,16.958-8.711,30.535-25.992,32.183
			C3101.712,1525.046,3088.691,1513.697,3087.072,1496.741z"/>
		<path style="fill:#2EBEC7;" d="M3230.424,1491.179c1.396-17.296,14.266-28.831,31.243-27.454
			c16.973,1.373,27.524,14.482,26.101,32.099c-1.369,16.979-13.919,28.539-31.217,27.136
			C3239.893,1521.614,3229.048,1508.16,3230.424,1491.179z"/>
		<path style="fill:#EC5624;" d="M3372.566,1510.831c4.407-16.785,19.084-25.891,35.57-21.563
			c16.475,4.326,24.568,19.078,20.074,36.175c-4.331,16.477-18.705,25.661-35.494,21.252
			C3376.551,1542.451,3368.235,1527.308,3372.566,1510.831z"/>
		<path style="fill:#FFFFFF;" d="M3509.09,1555.015c7.261-15.761,23.302-22.177,38.775-15.049
			c15.479,7.125,20.876,23.058,13.48,39.111c-7.119,15.475-22.874,22.021-38.64,14.757
			C3507.525,1586.847,3501.971,1570.488,3509.09,1555.015z"/>
		<path style="fill:#2EBEC7;" d="M3635.928,1622.256c9.881-14.271,26.794-17.805,40.8-8.107
			c14.001,9.699,16.567,26.327,6.491,40.858c-9.686,14.006-26.339,17.727-40.604,7.845
			C3628.874,1653.336,3626.232,1636.261,3635.928,1622.256z"/>
		<path style="fill:#EC5624;" d="M3749.161,1710.421c12.208-12.336,29.479-12.885,41.59-0.906
			c12.111,11.981,11.743,28.804-0.688,41.37c-11.981,12.107-29.024,12.878-41.362,0.674
			C3736.817,1739.806,3737.186,1722.531,3749.161,1710.421z"/>
		<path style="fill:#FFFFFF;" d="M3845.34,1816.92c14.18-10.019,31.276-7.542,41.103,6.368c9.837,13.917,6.535,30.412-7.904,40.614
			c-13.908,9.829-30.821,7.616-40.837-6.559C3828.059,1843.692,3831.432,1826.75,3845.34,1816.92z"/>
		<path style="fill:#2EBEC7;" d="M3921.379,1938.561c15.706-7.378,32.104-1.941,39.354,13.477c7.244,15.42,1.1,31.085-14.894,38.599
			c-15.425,7.242-31.688,2.098-39.067-13.613C3899.669,1961.894,3905.96,1945.801,3921.379,1938.561z"/>
		<path style="fill:#EC5624;" d="M3974.961,2071.686c16.756-4.537,31.969,3.664,36.42,20.109
			c4.449,16.44-4.315,30.801-21.375,35.423c-16.447,4.45-31.568-3.442-36.105-20.193
			C3949.531,2090.894,3958.523,2076.141,3974.961,2071.686z"/>
		<path style="fill:#FFFFFF;" d="M4004.781,2212.131c17.286-1.578,30.854,9.124,32.402,26.087
			c1.548,16.967-9.557,29.598-27.168,31.213c-16.962,1.548-30.502-8.833-32.077-26.117
			C3976.422,2226.666,3987.813,2213.685,4004.781,2212.131z"/>
		<path style="fill:#2EBEC7;" d="M4009.767,2355.504c17.298,1.473,28.775,14.382,27.335,31.354
			c-1.439,16.973-14.59,27.469-32.201,25.972c-16.974-1.441-28.483-14.034-27.016-31.325
			C3979.303,2364.85,3992.8,2354.062,4009.767,2355.504z"/>
		<path style="fill:#EC5624;" d="M3989.563,2497.557c16.771,4.474,25.813,19.194,21.423,35.654
			c-4.392,16.459-19.177,24.489-36.252,19.936c-16.458-4.391-25.587-18.801-21.114-35.572
			C3957.929,2501.428,3973.104,2493.167,3989.563,2497.557z"/>
		<path style="fill:#FFFFFF;" d="M3944.843,2633.924c15.733,7.322,22.078,23.393,14.894,38.838
			c-7.184,15.443-23.139,20.784-39.164,13.328c-15.451-7.186-21.927-22.967-14.607-38.7
			C3913.014,2632.235,3929.396,2626.74,3944.843,2633.924z"/>
		<path style="fill:#2EBEC7;" d="M3877.098,2760.495c14.233,9.936,17.709,26.864,7.953,40.829
			c-9.75,13.968-26.393,16.464-40.891,6.341c-13.963-9.752-17.617-26.416-7.683-40.646
			C3846.049,2753.314,3863.136,2750.742,3877.098,2760.495z"/>
	</g>
	<g>
		<g>
			<g>
				<g>
					<path style="fill:#EEECEC;" d="M965.444,3711.004c0,0.346-0.033,0.725-0.033,1.077c0,98.718,50.569,178.735,112.884,178.735
						h2673.784c62.314,0,112.815-80.018,112.815-178.735c0-0.353,0-0.731,0-1.077H965.444z"/>
				</g>
			</g>
			<path style="fill:#546D7F;" d="M2838.74,3800.902c0,23.166-18.781,41.914-41.941,41.914h-763.255
				c-23.193,0-41.977-18.748-41.977-41.914l0,0c0-23.156,18.784-41.947,41.977-41.947h763.255
				C2819.959,3758.955,2838.74,3777.746,2838.74,3800.902L2838.74,3800.902z"/>
			<path style="fill:#EEECEC;" d="M3568.352,2072.578H1261.963c-83.061,0-150.386,74.474-150.386,166.384v1270.506
				c0,91.843,67.325,166.35,150.386,166.35h2306.388c83.088,0,150.416-74.507,150.416-166.35V2238.962
				C3718.768,2147.052,3651.439,2072.578,3568.352,2072.578z M3592.373,3565.211H1237.969V2183.196h2354.404V3565.211z"/>
			<path style="fill:#BFBDBD;" d="M2457.112,2127.527c0,23.167-18.781,41.947-41.975,41.947c-23.128,0-41.909-18.781-41.909-41.947
				c0-23.155,18.781-41.928,41.909-41.928C2438.331,2085.599,2457.112,2104.372,2457.112,2127.527z"/>
		</g>
		<polygon style="fill:#183C51;" points="3573.029,2183.196 1237.969,2183.196 1237.969,3564.453 1237.969,3565.211 
			3592.373,3565.211 3592.373,2183.196 		"/>
	</g>
	<path style="fill:#FFFFFF;" d="M2300.928,2472.139c1.059-4.582,1.632-9.335,1.632-14.22c0-36.301-30.781-65.729-68.751-65.729
		c-26.114,0-48.829,13.922-60.466,34.425c-6.976-3.676-14.989-5.774-23.519-5.774c-26.942,0-48.782,20.88-48.782,46.638
		c0,0.68,0.024,1.354,0.054,2.026h-0.16c-22.999,0-41.645,17.827-41.645,39.814c0,21.988,18.646,39.815,41.645,39.815h185.098
		c22.998,0,41.646-17.827,41.646-39.815C2327.681,2492.35,2316.568,2477.869,2300.928,2472.139z"/>
	<path style="fill:#FFFFFF;" d="M2991.755,2956.12c-0.883-3.809-1.359-7.764-1.359-11.827c0-30.196,25.603-54.676,57.188-54.676
		c21.727,0,40.621,11.581,50.302,28.638c5.803-3.06,12.468-4.805,19.561-4.805c22.413,0,40.577,17.37,40.577,38.796
		c0,0.566-0.017,1.126-0.038,1.687h0.13c19.134,0,34.645,14.829,34.645,33.117c0,18.294-15.511,33.122-34.645,33.122h-153.973
		c-19.133,0-34.644-14.828-34.644-33.122C2969.498,2972.936,2978.739,2960.89,2991.755,2956.12z"/>
	<g>
		<path style="fill:#F38020;" d="M2566.445,3421.406c0,35.504-50.301,83.322-50.301,83.322s-50.3-47.818-50.3-83.322
			c0-35.508,22.52-45.259,50.3-45.259C2543.924,3376.147,2566.445,3385.898,2566.445,3421.406z"/>
		<path style="fill:#EEB31F;" d="M2550.858,3414.384c0,24.507-34.714,57.51-34.714,57.51s-34.718-33.003-34.718-57.51
			c0-24.509,15.543-31.235,34.718-31.235C2535.315,3383.148,2550.858,3389.875,2550.858,3414.384z"/>
		<path style="fill:#F7CB6B;" d="M2536.252,3402.648c0,14.196-20.107,33.313-20.107,33.313s-20.109-19.116-20.109-33.313
			c0-14.195,9.005-18.093,20.109-18.093S2536.252,3388.453,2536.252,3402.648z"/>
		<g>
			<g>
				<path style="fill:#E93859;" d="M2475.108,3294.361c0,0-69.261,36.36-69.261,115.147c0,0,4.328,8.654,11.253-1.735
					c6.927-10.387,12.988-38.956,57.142-38.956L2475.108,3294.361z"/>
				<path style="fill:#BB3548;" d="M2556.83,3294.361c0,0,69.267,36.36,69.267,115.147c0,0-4.331,8.654-11.256-1.735
					c-6.93-10.387-12.988-38.956-57.145-38.956L2556.83,3294.361z"/>
			</g>
			<g>
				<path style="fill:#DEF1F3;" d="M2592.871,3217.806c0-32.256-5.452-62.62-13.567-89.179h-63.333v26.951
					c23.432,0,42.424,18.994,42.424,42.424c0,23.432-18.992,42.426-42.424,42.426v136.348h41.444
					C2578.74,3343.233,2592.871,3284.568,2592.871,3217.806z"/>
				<path style="fill:#DEF1F3;" d="M2473.546,3198.002c0-23.43,18.992-42.424,42.425-42.424v-26.951h-63.331
					c-8.121,26.559-13.567,56.923-13.567,89.179c0,66.763,14.13,125.428,35.451,158.97h41.447v-136.348
					C2492.538,3240.428,2473.546,3221.434,2473.546,3198.002z"/>
				<path style="fill:#E6C536;" d="M2475.113,3376.903c-1.069,0-1.938,0.866-1.938,1.938v9.046c0,1.069,0.869,1.938,1.938,1.938
					h40.857v-12.923H2475.113z"/>
				<path style="fill:#CDAF2F;" d="M2556.787,3376.903h-40.816v12.923h40.816c1.072,0,1.943-0.869,1.943-1.938v-9.046
					C2558.73,3377.77,2557.859,3376.903,2556.787,3376.903z"/>
				<path style="fill:#CDAF2F;" d="M2545.039,3198.002c0,16.055-13.016,29.07-29.068,29.07v13.355
					c23.432,0,42.424-18.994,42.424-42.426c0-23.43-18.992-42.424-42.424-42.424v13.355
					C2532.023,3168.934,2545.039,3181.946,2545.039,3198.002z"/>
				<path style="fill:#E6C536;" d="M2473.546,3198.002c0,23.432,18.992,42.426,42.425,42.426v-13.355
					c-16.057,0-29.071-13.016-29.071-29.07c0-16.056,13.014-29.068,29.071-29.068v-13.355
					C2492.538,3155.578,2473.546,3174.572,2473.546,3198.002z"/>
				<path style="fill:#82CFD0;" d="M2545.039,3198.002c0-16.056-13.016-29.068-29.068-29.068v58.139
					C2532.023,3227.072,2545.039,3214.057,2545.039,3198.002z"/>
				<path style="fill:#A5DBE2;" d="M2486.899,3198.002c0,16.055,13.014,29.07,29.071,29.07v-58.139
					C2499.914,3168.934,2486.899,3181.946,2486.899,3198.002z"/>
			</g>
		</g>
		<g>
			<path style="fill:#BB3548;" d="M2515.971,3029.111v99.516h63.333C2561.194,3069.391,2529.804,3029.111,2515.971,3029.111z"/>
			<path style="fill:#E93859;" d="M2515.971,3029.111c-13.832,0-45.224,40.279-63.331,99.516h63.331V3029.111L2515.971,3029.111z"/>
			<path style="fill:#BB3548;" d="M2518.635,3315.918c-0.211-0.065-0.433-0.105-0.666-0.105h-0.054h-1.944v97.178h2.183h0.06
				c1.218,0,2.209-0.988,2.209-2.207v-2.953l0.081-4.264l6.128-78.142C2526.631,3317.504,2519.988,3316.259,2518.635,3315.918z"/>
			<path style="fill:#E93859;" d="M2513.789,3315.813h-0.059c-0.233,0-0.455,0.04-0.666,0.105c-0.391,0.097-0.823,0.268-1.251,0.517
				c-2.409,0.785-6.508,2.889-6.508,9.104l6.134,78.221l0.082,3.958v2.95c0,0.929,0.568,1.719,1.38,2.047
				c0.319,0.176,0.683,0.276,1.066,0.276h0.06h1.943v-97.178H2513.789z"/>
		</g>
	</g>
	<path style="fill:#FFFFFF;" d="M1658.481,3275.654c-0.609-2.635-0.937-5.368-0.937-8.178c0-20.879,17.703-37.806,39.541-37.806
		c15.021,0,28.087,8.007,34.779,19.802c4.012-2.117,8.622-3.322,13.527-3.322c15.497,0,28.061,12.012,28.061,26.824
		c0,0.393-0.014,0.779-0.033,1.166h0.092c13.229,0,23.954,10.254,23.954,22.901c0,12.646-10.726,22.901-23.954,22.901h-106.463
		c-13.229,0-23.954-10.255-23.954-22.901C1643.095,3287.283,1649.486,3278.951,1658.481,3275.654z"/>
	<path style="fill:#FFFFFF;" d="M1428.377,2512.609c-0.879-3.809-1.359-7.764-1.359-11.827c0-30.196,25.605-54.675,57.19-54.675
		c21.724,0,40.618,11.581,50.298,28.637c5.804-3.059,12.468-4.805,19.563-4.805c22.414,0,40.578,17.371,40.578,38.796
		c0,0.565-0.016,1.126-0.041,1.687h0.13c19.133,0,34.644,14.828,34.644,33.117c0,18.294-15.511,33.123-34.644,33.123h-153.973
		c-19.13,0-34.641-14.829-34.641-33.123C1406.124,2529.425,1415.365,2517.379,1428.377,2512.609z"/>
	<g>
		<g>
			<path style="fill:#82CFD0;" d="M1838.111,2436.459l-1.583,0.114l-57.724,4.19l-58.688-4.258l-0.623-0.046
				c-36.598,10.979-48.758,30.104-50.138,32.465h54.432h109.062h55.406C1886.872,2466.563,1874.712,2447.438,1838.111,2436.459z"/>
			<path style="fill:#82CFD0;" d="M1886.861,2471.853h-216.112c8.126,14.003,20.205,23.648,33.394,30.311l0.707,21.188
				c0,0,8.998-7.464,17.882-13.765c19.75,6.066,39.11,7.084,49.48,7.119v8.594c0,2.967,2.407,5.371,5.374,5.371
				c2.964,0,5.368-2.404,5.368-5.371v-8.607c9.647,0.119,31.041-0.555,52.756-7.377c9.009,6.359,18.267,14.036,18.267,14.036
				l0.728-21.823C1867.408,2494.892,1878.986,2485.415,1886.861,2471.853z"/>
			<path style="fill:#EEECEC;" d="M1719.488,2453.862c0,3.148-2.55,5.704-5.701,5.704c-3.148,0-5.701-2.555-5.701-5.704
				c0-3.146,2.552-5.698,5.701-5.698C1716.938,2448.164,1719.488,2450.717,1719.488,2453.862z"/>
			<path style="fill:#EEECEC;" d="M1851.632,2453.862c0,3.148-2.552,5.704-5.701,5.704c-3.148,0-5.704-2.555-5.704-5.704
				c0-3.146,2.556-5.698,5.704-5.698C1849.08,2448.164,1851.632,2450.717,1851.632,2453.862z"/>
			<path style="fill:#EEECEC;" d="M1752.524,2455.159c0,3.148-2.553,5.703-5.701,5.703c-3.151,0-5.701-2.555-5.701-5.703
				c0-3.146,2.55-5.701,5.701-5.701C1749.972,2449.458,1752.524,2452.014,1752.524,2455.159z"/>
			<path style="fill:#EEECEC;" d="M1818.596,2455.159c0,3.148-2.553,5.703-5.704,5.703c-3.148,0-5.698-2.555-5.698-5.703
				c0-3.146,2.55-5.701,5.698-5.701C1816.043,2449.458,1818.596,2452.014,1818.596,2455.159z"/>
			<path style="fill:#EEECEC;" d="M1785.561,2456.683c0,3.148-2.553,5.704-5.701,5.704s-5.704-2.556-5.704-5.704
				c0-3.146,2.555-5.698,5.704-5.698S1785.561,2453.538,1785.561,2456.683z"/>
		</g>
		<path style="fill:#EEECEC;" d="M1780.969,2384.282v-10.032c2.074-0.855,3.535-2.891,3.535-5.273c0-3.146-2.552-5.698-5.701-5.698
			c-3.151,0-5.701,2.553-5.701,5.698c0,2.385,1.465,4.42,3.538,5.273v9.989c-28.542,0.801-51.966,21.821-56.524,49.27l58.688,4.258
			l57.724-4.19C1832.05,2406.409,1809.089,2385.536,1780.969,2384.282z M1734.182,2431.378l-5.66-0.333
			c0-35.632,45.288-41.958,45.288-41.958C1730.184,2407.402,1734.182,2431.378,1734.182,2431.378z"/>
	</g>
	<g>
		<g>
			<path style="fill:#82CFD0;" d="M3020.584,2735.802l-1.586,0.114l-57.724,4.189l-58.688-4.258l-0.622-0.046
				c-36.599,10.979-48.759,30.104-50.139,32.465h54.432h109.063h55.407C3069.342,2765.906,3057.183,2746.781,3020.584,2735.802z"/>
			<path style="fill:#82CFD0;" d="M3069.331,2771.195h-216.108c8.126,14.004,20.205,23.648,33.393,30.311l0.704,21.188
				c0,0,8.998-7.463,17.883-13.766c19.75,6.066,39.11,7.084,49.483,7.119v8.596c0,2.967,2.403,5.37,5.37,5.37
				c2.968,0,5.371-2.403,5.371-5.37v-8.608c9.647,0.119,31.038-0.556,52.753-7.377c9.01,6.358,18.268,14.036,18.268,14.036
				l0.73-21.824C3049.879,2794.234,3061.459,2784.758,3069.331,2771.195z"/>
			<path style="fill:#EEECEC;" d="M2901.959,2753.205c0,3.148-2.55,5.703-5.701,5.703c-3.146,0-5.701-2.555-5.701-5.703
				c0-3.146,2.556-5.698,5.701-5.698C2899.409,2747.507,2901.959,2750.06,2901.959,2753.205z"/>
			<path style="fill:#EEECEC;" d="M3034.103,2753.205c0,3.148-2.55,5.703-5.701,5.703c-3.146,0-5.7-2.555-5.7-5.703
				c0-3.146,2.555-5.698,5.7-5.698C3031.553,2747.507,3034.103,2750.06,3034.103,2753.205z"/>
			<path style="fill:#EEECEC;" d="M2934.995,2754.502c0,3.148-2.55,5.703-5.701,5.703s-5.701-2.555-5.701-5.703
				c0-3.146,2.55-5.701,5.701-5.701S2934.995,2751.356,2934.995,2754.502z"/>
			<path style="fill:#EEECEC;" d="M3001.066,2754.502c0,3.148-2.55,5.703-5.701,5.703c-3.15,0-5.7-2.555-5.7-5.703
				c0-3.146,2.55-5.701,5.7-5.701C2998.517,2748.801,3001.066,2751.356,3001.066,2754.502z"/>
			<path style="fill:#EEECEC;" d="M2968.031,2756.025c0,3.148-2.551,5.704-5.701,5.704c-3.146,0-5.701-2.556-5.701-5.704
				c0-3.146,2.556-5.697,5.701-5.697C2965.48,2750.328,2968.031,2752.88,2968.031,2756.025z"/>
		</g>
		<path style="fill:#EEECEC;" d="M2963.439,2683.625v-10.032c2.074-0.855,3.535-2.891,3.535-5.273c0-3.146-2.55-5.698-5.7-5.698
			c-3.151,0-5.701,2.553-5.701,5.698c0,2.386,1.468,4.421,3.541,5.273v9.989c-28.543,0.801-51.969,21.82-56.527,49.27l58.688,4.258
			l57.724-4.19C3014.521,2705.752,2991.56,2684.878,2963.439,2683.625z M2916.652,2730.721l-5.657-0.333
			c0-35.632,45.287-41.958,45.287-41.958C2912.656,2706.745,2916.652,2730.721,2916.652,2730.721z"/>
	</g>
	<g>
		<g>
			<path style="fill:#82CFD0;" d="M2148.568,2805.286l-1.583,0.113l-57.724,4.19l-58.687-4.258l-0.623-0.046
				c-36.598,10.979-48.758,30.104-50.138,32.465h54.432h109.061h55.407C2197.329,2835.391,2185.169,2816.266,2148.568,2805.286z"/>
			<path style="fill:#82CFD0;" d="M2197.318,2840.68h-216.111c8.126,14.003,20.205,23.648,33.393,30.31l0.707,21.188
				c0,0,8.998-7.463,17.882-13.765c19.75,6.066,39.11,7.084,49.481,7.119v8.595c0,2.967,2.406,5.371,5.373,5.371
				c2.964,0,5.368-2.404,5.368-5.371v-8.608c9.647,0.119,31.041-0.555,52.756-7.376c9.009,6.358,18.267,14.035,18.267,14.035
				l0.729-21.823C2177.866,2863.719,2189.443,2854.241,2197.318,2840.68z"/>
			<path style="fill:#EEECEC;" d="M2029.946,2822.689c0,3.147-2.55,5.703-5.701,5.703c-3.148,0-5.701-2.556-5.701-5.703
				c0-3.146,2.553-5.698,5.701-5.698C2027.396,2816.991,2029.946,2819.543,2029.946,2822.689z"/>
			<path style="fill:#EEECEC;" d="M2162.09,2822.689c0,3.147-2.553,5.703-5.701,5.703c-3.148,0-5.703-2.556-5.703-5.703
				c0-3.146,2.555-5.698,5.703-5.698C2159.537,2816.991,2162.09,2819.543,2162.09,2822.689z"/>
			<path style="fill:#EEECEC;" d="M2062.982,2823.985c0,3.148-2.553,5.704-5.701,5.704c-3.151,0-5.701-2.556-5.701-5.704
				c0-3.146,2.55-5.7,5.701-5.7C2060.429,2818.285,2062.982,2820.84,2062.982,2823.985z"/>
			<path style="fill:#EEECEC;" d="M2129.054,2823.985c0,3.148-2.553,5.704-5.704,5.704c-3.148,0-5.698-2.556-5.698-5.704
				c0-3.146,2.55-5.7,5.698-5.7C2126.501,2818.285,2129.054,2820.84,2129.054,2823.985z"/>
			<path style="fill:#EEECEC;" d="M2096.018,2825.51c0,3.148-2.553,5.703-5.701,5.703s-5.704-2.555-5.704-5.703
				c0-3.146,2.556-5.698,5.704-5.698S2096.018,2822.364,2096.018,2825.51z"/>
		</g>
		<path style="fill:#EEECEC;" d="M2091.427,2753.109v-10.032c2.073-0.855,3.535-2.892,3.535-5.273c0-3.146-2.553-5.698-5.701-5.698
			c-3.151,0-5.701,2.553-5.701,5.698c0,2.385,1.464,4.421,3.538,5.273v9.988c-28.543,0.802-51.966,21.821-56.524,49.27l58.687,4.259
			l57.724-4.19C2142.508,2775.236,2119.547,2754.362,2091.427,2753.109z M2044.64,2800.205l-5.661-0.333
			c0-35.632,45.288-41.958,45.288-41.958C2040.641,2776.229,2044.64,2800.205,2044.64,2800.205z"/>
	</g>
	<g>
		<g>
			<path style="fill:#82CFD0;" d="M3382.469,2385.2l-1.586,0.114l-57.724,4.19l-58.688-4.258l-0.622-0.046
				c-36.599,10.979-48.759,30.104-50.139,32.465h54.432h109.063h55.407C3431.227,2415.304,3419.066,2396.179,3382.469,2385.2z"/>
			<path style="fill:#82CFD0;" d="M3431.216,2420.594h-216.108c8.126,14.003,20.205,23.648,33.393,30.31l0.704,21.188
				c0,0,8.998-7.463,17.883-13.765c19.75,6.066,39.11,7.084,49.483,7.119v8.595c0,2.967,2.403,5.371,5.37,5.371
				s5.371-2.404,5.371-5.371v-8.608c9.647,0.119,31.038-0.555,52.753-7.376c9.01,6.358,18.268,14.035,18.268,14.035l0.73-21.823
				C3411.764,2443.633,3423.344,2434.155,3431.216,2420.594z"/>
			<path style="fill:#EEECEC;" d="M3263.844,2402.603c0,3.148-2.55,5.704-5.701,5.704c-3.146,0-5.701-2.556-5.701-5.704
				c0-3.146,2.556-5.698,5.701-5.698C3261.294,2396.905,3263.844,2399.458,3263.844,2402.603z"/>
			<path style="fill:#EEECEC;" d="M3395.987,2402.603c0,3.148-2.55,5.704-5.701,5.704c-3.146,0-5.7-2.556-5.7-5.704
				c0-3.146,2.555-5.698,5.7-5.698C3393.438,2396.905,3395.987,2399.458,3395.987,2402.603z"/>
			<path style="fill:#EEECEC;" d="M3296.88,2403.899c0,3.148-2.55,5.704-5.701,5.704s-5.701-2.556-5.701-5.704
				c0-3.146,2.55-5.701,5.701-5.701S3296.88,2400.754,3296.88,2403.899z"/>
			<path style="fill:#EEECEC;" d="M3362.951,2403.899c0,3.148-2.55,5.704-5.701,5.704c-3.15,0-5.7-2.556-5.7-5.704
				c0-3.146,2.55-5.701,5.7-5.701C3360.401,2398.199,3362.951,2400.754,3362.951,2403.899z"/>
			<path style="fill:#EEECEC;" d="M3329.916,2405.424c0,3.148-2.551,5.703-5.701,5.703c-3.146,0-5.701-2.555-5.701-5.703
				c0-3.146,2.556-5.698,5.701-5.698C3327.365,2399.726,3329.916,2402.278,3329.916,2405.424z"/>
		</g>
		<path style="fill:#EEECEC;" d="M3325.324,2333.023v-10.032c2.074-0.855,3.535-2.891,3.535-5.273c0-3.146-2.55-5.698-5.7-5.698
			c-3.151,0-5.701,2.553-5.701,5.698c0,2.385,1.467,4.42,3.541,5.273v9.989c-28.543,0.801-51.969,21.821-56.527,49.27l58.688,4.258
			l57.724-4.19C3376.405,2355.149,3353.444,2334.276,3325.324,2333.023z M3278.537,2380.119l-5.658-0.333
			c0-35.632,45.288-41.958,45.288-41.958C3274.541,2356.143,3278.537,2380.119,3278.537,2380.119z"/>
	</g>
	<path style="fill:#FFFFFF;" d="M3275.039,2472.844c0.612-2.635,0.942-5.37,0.942-8.179c0-20.879-17.709-37.806-39.543-37.806
		c-15.024,0-28.088,8.007-34.785,19.8c-4.006-2.114-8.619-3.322-13.524-3.322c-15.494,0-28.06,12.012-28.06,26.826
		c0,0.391,0.016,0.78,0.032,1.166h-0.092c-13.227,0-23.951,10.252-23.951,22.901c0,12.647,10.725,22.901,23.951,22.901h106.465
		c13.227,0,23.951-10.254,23.951-22.901C3290.426,2484.47,3284.037,2476.141,3275.039,2472.844z"/>
	<g>
		<g>
			<g>
				<path style="fill:#82CFD0;" d="M2550.322,2454.771l-1.586,0.114l-57.722,4.19l-58.688-4.258l-0.623-0.046
					c-36.598,10.979-48.758,30.104-50.138,32.465h54.432h109.063h55.406C2599.081,2484.875,2586.921,2465.75,2550.322,2454.771z"/>
				<path style="fill:#82CFD0;" d="M2599.07,2490.164h-216.11c8.129,14.004,20.208,23.648,33.396,30.311l0.704,21.188
					c0,0,8.998-7.464,17.882-13.766c19.75,6.066,39.111,7.084,49.484,7.119v8.595c0,2.968,2.403,5.371,5.37,5.371
					s5.368-2.403,5.368-5.371v-8.608c9.648,0.119,31.039-0.555,52.755-7.376c9.009,6.358,18.267,14.036,18.267,14.036l0.73-21.824
					C2579.617,2513.203,2591.198,2503.727,2599.07,2490.164z"/>
				<path style="fill:#EEECEC;" d="M2431.699,2472.174c0,3.148-2.55,5.703-5.701,5.703c-3.146,0-5.701-2.555-5.701-5.703
					c0-3.146,2.555-5.698,5.701-5.698C2429.149,2466.476,2431.699,2469.028,2431.699,2472.174z"/>
				<path style="fill:#EEECEC;" d="M2563.842,2472.174c0,3.148-2.551,5.703-5.701,5.703c-3.146,0-5.701-2.555-5.701-5.703
					c0-3.146,2.556-5.698,5.701-5.698C2561.291,2466.476,2563.842,2469.028,2563.842,2472.174z"/>
				<path style="fill:#EEECEC;" d="M2464.735,2473.47c0,3.148-2.552,5.704-5.701,5.704c-3.151,0-5.701-2.556-5.701-5.704
					c0-3.146,2.55-5.701,5.701-5.701C2462.183,2467.77,2464.735,2470.325,2464.735,2473.47z"/>
				<path style="fill:#EEECEC;" d="M2530.806,2473.47c0,3.148-2.55,5.704-5.701,5.704s-5.7-2.556-5.7-5.704
					c0-3.146,2.549-5.701,5.7-5.701S2530.806,2470.325,2530.806,2473.47z"/>
				<path style="fill:#EEECEC;" d="M2497.77,2474.994c0,3.148-2.549,5.704-5.699,5.704c-3.148,0-5.701-2.555-5.701-5.704
					c0-3.146,2.553-5.698,5.701-5.698C2495.221,2469.296,2497.77,2471.849,2497.77,2474.994z"/>
			</g>
			<path style="fill:#EEECEC;" d="M2493.18,2402.594v-10.032c2.074-0.855,3.535-2.891,3.535-5.273c0-3.146-2.552-5.698-5.7-5.698
				c-3.151,0-5.701,2.553-5.701,5.698c0,2.385,1.464,4.421,3.538,5.273v9.989c-28.54,0.801-51.966,21.821-56.524,49.27l58.688,4.258
				l57.722-4.19C2544.259,2424.72,2521.299,2403.847,2493.18,2402.594z M2446.393,2449.689l-5.66-0.333
				c0-35.632,45.29-41.958,45.29-41.958C2442.397,2425.714,2446.393,2449.689,2446.393,2449.689z"/>
		</g>
		<path style="fill:#F38020;" d="M2560.945,2566.831c55.909-13.603,113.596-1.627,113.596-1.627
			c-48.895-10.17-81.729-36.701-98.756-54.063c23.988-32.651,55.645-53.409,55.645-53.409
			c-25.961,17.013-52.028,23.069-71.621,24.866c-13.784-56.051-1.744-114.053-1.744-114.053
			c-10.15,48.802-36.614,81.61-53.987,98.672c-30.98-23.684-50.52-53.477-50.52-53.477c16.607,25.327,22.771,50.764,24.734,70.184
			c-56.181,13.93-114.461,1.827-114.461,1.827c48.187,10.026,80.795,35.954,98.03,53.327c-23.827,31.71-54.432,51.793-54.432,51.793
			c24.877-16.31,49.854-22.547,69.139-24.623c14.133,56.335,1.954,114.966,1.954,114.966c10.311-49.557,37.449-82.642,54.791-99.469
			c32.018,23.884,52.314,54.816,52.314,54.816C2569.146,2611.423,2562.953,2586.188,2560.945,2566.831z"/>
		<path style="fill:#EEB31F;" d="M2549.809,2555.676c40.979-9.965,83.256-1.188,83.256-1.188
			c-35.835-7.455-59.895-26.896-72.374-39.622c17.573-23.93,40.772-39.143,40.772-39.143c-19.02,12.468-38.131,16.908-52.488,18.226
			c-10.097-41.081-1.272-83.587-1.272-83.587c-7.438,35.763-26.837,59.809-39.565,72.315
			c-22.707-17.357-37.027-39.194-37.027-39.194c12.173,18.564,16.688,37.205,18.126,51.438c-41.173,10.21-83.884,1.337-83.884,1.337
			c35.315,7.347,59.209,26.35,71.843,39.083c-17.463,23.242-39.89,37.957-39.89,37.957c18.231-11.954,36.536-16.523,50.667-18.042
			c10.361,41.284,1.438,84.252,1.438,84.252c7.555-36.319,27.439-60.565,40.151-72.898c23.469,17.506,38.342,40.172,38.342,40.172
			C2555.829,2588.359,2551.286,2569.865,2549.809,2555.676z"/>
		<path style="fill:#F7CB6B;" d="M2540.351,2546.198c28.276-6.878,57.452-0.817,57.452-0.817
			c-24.73-5.146-41.335-18.57-49.949-27.349c12.133-16.513,28.143-27.016,28.143-27.016c-13.129,8.603-26.313,11.667-36.225,12.579
			c-6.969-28.353-0.883-57.69-0.883-57.69c-5.133,24.685-18.516,41.281-27.303,49.911c-15.672-11.981-25.555-27.048-25.555-27.048
			c8.4,12.81,11.517,25.673,12.513,35.497c-28.419,7.052-57.898,0.923-57.898,0.923c24.374,5.07,40.864,18.188,49.584,26.976
			c-12.052,16.041-27.53,26.198-27.53,26.198c12.582-8.251,25.216-11.404,34.968-12.452c7.151,28.493,0.99,58.148,0.99,58.148
			c5.214-25.066,18.943-41.804,27.714-50.314c16.199,12.081,26.464,27.725,26.464,27.725
			C2544.497,2568.756,2541.363,2555.992,2540.351,2546.198z"/>
	</g>
	<g>
		<path style="fill:#F7CB6B;" d="M2513.752,2975.387h4.439v25.144h-4.439V2975.387z"/>
		<path style="fill:#F7CB6B;" d="M2513.752,2940.081h4.439v25.146h-4.439V2940.081z"/>
		<path style="fill:#F7CB6B;" d="M2513.752,2904.776h4.439v25.146h-4.439V2904.776z"/>
		<path style="fill:#F7CB6B;" d="M2513.752,2869.471h4.439v25.146h-4.439V2869.471z"/>
		<path style="fill:#F7CB6B;" d="M2513.752,2834.166h4.439v25.146h-4.439V2834.166z"/>
		<path style="fill:#F7CB6B;" d="M2513.752,2798.861h4.439v25.145h-4.439V2798.861z"/>
		<path style="fill:#F7CB6B;" d="M2513.752,2763.557h4.439v25.145h-4.439V2763.557z"/>
		<path style="fill:#F7CB6B;" d="M2513.752,2728.251h4.439v25.145h-4.439V2728.251z"/>
		<path style="fill:#F7CB6B;" d="M2513.752,2692.946h4.439v25.146h-4.439V2692.946z"/>
		<path style="fill:#F7CB6B;" d="M2513.752,2657.641h4.439v25.146h-4.439V2657.641z"/>
		<path style="fill:#F7CB6B;" d="M2513.752,2622.336h4.439v25.146h-4.439V2622.336z"/>
	</g>
	<g>
		<path style="fill:#275768;" d="M3301.692,3359.115c-37.827-3.789-79.314-4.098-121.407-0.182
			c-132.962,12.377-221.404,62.117-197.556,111.1c0.628,1.295,1.375,2.566,2.139,3.831l-0.779,0.073
			c-62.065,5.773-112.772,21.093-142.652,40.623c-22.695,14.832-33.36,32.094-27.893,49.457l253.746-23.613l522.804-48.658v-227.641
			c-7.276,0.502-14.574,1.089-21.883,1.771C3439.337,3277.868,3340.137,3314.777,3301.692,3359.115z"/>
		<g>
			<path style="fill:#1E485B;" d="M3169.262,3458.413c-35.186-7.149-75.627-11.229-118.657-11.229
				c-135.938,0-246.135,40.6-246.135,90.682c0,0.222,0.006,0.438,0.011,0.658c27.081,7.73,51.178,16.736,71.729,26.688h713.884
				v-166.446c-36.197-4.718-75.156-7.287-115.739-7.287C3342.578,3391.478,3227.981,3418.545,3169.262,3458.413z"/>
			<path style="fill:#275768;" d="M2804.48,3538.523c-35.331-10.09-75.741-17.999-120.016-22.98
				c-127.613-14.35-254.027-0.619-333.612,31.596c-30.01-10.757-66.841-19.11-108.52-23.797
				c-21.417-2.411-42.787-3.697-63.679-3.968c29.254,12.441,47.911,28.355,50.834,45.837h423.943h222.778
				C2855.658,3555.26,2831.562,3546.254,2804.48,3538.523z"/>
			<path style="fill:#1E485B;" d="M2178.654,3519.374c-38.531-16.383-95.421-26.748-158.878-26.748h-0.798
				c0.146-1.308,0.271-2.617,0.271-3.941c0-50.081-110.198-90.681-246.137-90.681c-43.033,0-83.467,4.076-118.66,11.226
				c-58.717-39.865-173.32-66.935-305.084-66.935c-38.967,0-76.437,2.368-111.397,6.734v216.182h732.085h259.434
				C2226.564,3547.729,2207.908,3531.815,2178.654,3519.374z"/>
		</g>
		<path style="fill:#275768;" d="M1937.914,3540.951c-45.715-12.36-106.378-17.108-168.341-11.117l-0.777,0.075
			c-0.501-1.291-1.031-2.582-1.687-3.874c-24.733-48.9-152.381-78.142-285.117-65.308c-42.015,4.063-79.482,11.861-110.315,22.164
			c-35.694-15.47-81.753-27.121-133.708-33.935v116.254H1994.1C1980.397,3555.441,1961.083,3547.218,1937.914,3540.951z"/>
	</g>
	<g>
		<g>
			<g>
				<path style="fill:#EEECEC;" d="M4086.039,1213.902h-85.405h-705.043h-85.41c-171.947,0-302.684,169.316-302.684,341.195
					c0,171.92,135.847,341.304,307.811,341.304h75.162h715.28h75.162c171.963,0,307.81-169.384,307.81-341.304
					C4388.722,1383.218,4257.996,1213.902,4086.039,1213.902z"/>
				<g>
					<rect x="3032.078" y="1453.021" style="fill:#908F8F;" width="69.704" height="204.268"/>
					<rect x="2964.761" y="1520.305" style="fill:#908F8F;" width="204.306" height="69.707"/>
				</g>
				<polygon style="fill:#7EBFC7;" points="4063.225,1254.326 3225.063,1254.326 3225.063,1855.97 3230.174,1855.97 
					4071.118,1855.97 4071.118,1254.326 				"/>
			</g>
			<g>
				<path style="fill:#908F8F;" d="M4057.578,1267.863v574.572h-818.975v-574.572H4057.578 M4071.118,1254.326h-7.894h-838.161
					v601.644h5.11h840.944V1254.326L4071.118,1254.326z"/>
			</g>
			<g>
				<g>
					<path style="fill:#546D7F;" d="M4262.414,1482.348c0,21.743-17.611,39.381-39.354,39.381
						c-21.727,0-39.344-17.638-39.344-39.381c0-21.74,17.617-39.359,39.344-39.359
						C4244.803,1442.988,4262.414,1460.608,4262.414,1482.348z"/>
					<path style="fill:#546D7F;" d="M4262.414,1627.961c0,21.737-17.611,39.349-39.354,39.349
						c-21.727,0-39.344-17.612-39.344-39.349s17.617-39.387,39.344-39.387C4244.803,1588.575,4262.414,1606.225,4262.414,1627.961z"
						/>
				</g>
				<g>
					<path style="fill:#546D7F;" d="M4295.873,1594.514c-21.737,0-39.354-17.625-39.354-39.359
						c0-21.731,17.617-39.354,39.354-39.354c21.736,0,39.354,17.622,39.354,39.354
						C4335.227,1576.889,4317.609,1594.514,4295.873,1594.514z"/>
					<path style="fill:#546D7F;" d="M4150.259,1594.514c-21.737,0-39.354-17.625-39.354-39.359
						c0-21.731,17.617-39.354,39.354-39.354c21.731,0,39.392,17.622,39.392,39.354
						C4189.65,1576.889,4171.99,1594.514,4150.259,1594.514z"/>
				</g>
			</g>
		</g>
		<polygon style="fill:#183C51;" points="4048.736,1268.833 3239.167,1268.833 3239.167,1841.785 3239.167,1842.097 
			4055.444,1842.097 4055.444,1268.833 		"/>
		<path style="fill:#FFFFFF;" d="M3607.694,1373.284c0.368-1.657,0.568-3.368,0.568-5.138c0-13.124-10.676-23.762-23.837-23.762
			c-9.053,0-16.93,5.033-20.963,12.447c-2.42-1.329-5.197-2.09-8.154-2.09c-9.344,0-16.912,7.55-16.912,16.865
			c0,0.244,0.005,0.487,0.016,0.731h-0.055c-7.975,0-14.438,6.442-14.438,14.393c0,7.95,6.464,14.393,14.438,14.393h64.172
			c7.975,0,14.444-6.442,14.444-14.393C3616.974,1380.593,3613.113,1375.357,3607.694,1373.284z"/>
		<path style="fill:#FFFFFF;" d="M3877.894,1595.31c-0.303-1.38-0.466-2.807-0.466-4.277c0-10.917,8.874-19.766,19.826-19.766
			c7.531,0,14.082,4.188,17.438,10.352c2.009-1.104,4.326-1.735,6.778-1.735c7.774,0,14.071,6.28,14.071,14.025
			c0,0.203-0.006,0.406-0.017,0.609h0.049c6.632,0,12.008,5.362,12.008,11.973c0,6.613-5.376,11.973-12.008,11.973h-53.382
			c-6.632,0-12.008-5.36-12.008-11.973C3870.185,1601.39,3873.384,1597.031,3877.894,1595.31z"/>
		<g>
			<path style="fill:#F38020;" d="M3699.753,1770.364c0,12.837-17.443,30.124-17.443,30.124s-17.438-17.287-17.438-30.124
				c0-12.836,7.807-16.358,17.438-16.358C3691.946,1754.006,3699.753,1757.528,3699.753,1770.364z"/>
			<path style="fill:#EEB31F;" d="M3694.345,1767.825c0,8.863-12.035,20.792-12.035,20.792s-12.035-11.93-12.035-20.792
				c0-8.857,5.387-11.288,12.035-11.288S3694.345,1758.968,3694.345,1767.825z"/>
			<path style="fill:#F7CB6B;" d="M3689.283,1763.586c0,5.13-6.974,12.041-6.974,12.041s-6.974-6.911-6.974-12.041
				c0-5.132,3.124-6.542,6.974-6.542C3686.164,1757.043,3689.283,1758.454,3689.283,1763.586z"/>
			<g>
				<g>
					<path style="fill:#E93859;" d="M3668.087,1724.438c0,0-24.017,13.145-24.017,41.628c0,0,1.5,3.129,3.904-0.628
						c2.398-3.757,4.498-14.082,19.81-14.082L3668.087,1724.438z"/>
					<path style="fill:#BB3548;" d="M3696.418,1724.438c0,0,24.017,13.145,24.017,41.628c0,0-1.505,3.129-3.909-0.628
						c-2.398-3.757-4.499-14.082-19.81-14.082L3696.418,1724.438z"/>
				</g>
				<g>
					<path style="fill:#DEF1F3;" d="M3708.914,1696.762c0-11.662-1.89-22.636-4.705-32.234h-21.959v9.739
						c8.126,0,14.71,6.871,14.71,15.335c0,8.47-6.584,15.34-14.71,15.34v49.289h14.369
						C3704.014,1742.104,3708.914,1720.897,3708.914,1696.762z"/>
					<path style="fill:#DEF1F3;" d="M3667.54,1689.602c0-8.465,6.589-15.335,14.71-15.335v-9.739h-21.953
						c-2.815,9.599-4.705,20.573-4.705,32.234c0,24.136,4.895,45.342,12.289,57.469h14.369v-49.289
						C3674.129,1704.942,3667.54,1698.072,3667.54,1689.602z"/>
					<path style="fill:#E6C536;" d="M3668.087,1754.28c-0.373,0-0.671,0.314-0.671,0.698v3.27c0,0.39,0.298,0.704,0.671,0.704
						h14.163v-4.672H3668.087z"/>
					<path style="fill:#CDAF2F;" d="M3696.402,1754.28h-14.152v4.672h14.152c0.373,0,0.671-0.314,0.671-0.704v-3.27
						C3697.073,1754.594,3696.775,1754.28,3696.402,1754.28z"/>
					<path style="fill:#CDAF2F;" d="M3692.331,1689.602c0,5.806-4.51,10.511-10.081,10.511v4.829c8.126,0,14.71-6.87,14.71-15.34
						c0-8.465-6.584-15.335-14.71-15.335v4.83C3687.821,1679.096,3692.331,1683.801,3692.331,1689.602z"/>
					<path style="fill:#E6C536;" d="M3667.54,1689.602c0,8.47,6.589,15.34,14.71,15.34v-4.829c-5.565,0-10.075-4.705-10.075-10.511
						c0-5.801,4.51-10.506,10.075-10.506v-4.83C3674.129,1674.267,3667.54,1681.137,3667.54,1689.602z"/>
					<path style="fill:#82CFD0;" d="M3692.331,1689.602c0-5.801-4.51-10.506-10.081-10.506v21.017
						C3687.821,1700.113,3692.331,1695.408,3692.331,1689.602z"/>
					<path style="fill:#A5DBE2;" d="M3672.175,1689.602c0,5.806,4.51,10.511,10.075,10.511v-21.017
						C3676.685,1679.096,3672.175,1683.801,3672.175,1689.602z"/>
				</g>
			</g>
			<g>
				<path style="fill:#BB3548;" d="M3682.25,1628.549v35.979h21.959C3697.929,1643.112,3687.047,1628.549,3682.25,1628.549z"/>
				<path style="fill:#E93859;" d="M3682.25,1628.549c-4.791,0-15.679,14.563-21.953,35.979h21.953V1628.549L3682.25,1628.549z"/>
				<path style="fill:#BB3548;" d="M3683.176,1732.231c-0.076-0.024-0.146-0.041-0.232-0.041h-0.017h-0.677v35.134h0.758h0.021
					c0.423,0,0.764-0.36,0.764-0.799v-1.066l0.032-1.543l2.122-28.25C3685.947,1732.808,3683.646,1732.353,3683.176,1732.231z"/>
				<path style="fill:#E93859;" d="M3681.497,1732.191h-0.021c-0.081,0-0.157,0.016-0.232,0.041
					c-0.136,0.032-0.287,0.095-0.434,0.187c-0.833,0.287-2.257,1.042-2.257,3.292l2.133,28.277l0.021,1.429v1.072
					c0,0.333,0.2,0.617,0.481,0.733c0.108,0.068,0.238,0.103,0.368,0.103h0.021h0.672v-35.134H3681.497z"/>
			</g>
		</g>
		<path style="fill:#FFFFFF;" d="M3384.959,1663.764c-0.211-0.953-0.324-1.941-0.324-2.956c0-7.547,6.139-13.67,13.707-13.67
			c5.209,0,9.734,2.896,12.058,7.163c1.392-0.769,2.988-1.202,4.688-1.202c5.376,0,9.734,4.342,9.734,9.696
			c0,0.141-0.011,0.281-0.017,0.419h0.032c4.586,0,8.306,3.706,8.306,8.281c0,4.572-3.72,8.278-8.306,8.278h-36.912
			c-4.58,0-8.305-3.706-8.305-8.278C3379.621,1667.968,3381.841,1664.955,3384.959,1663.764z"/>
		<path style="fill:#FFFFFF;" d="M3305.18,1387.915c-0.304-1.375-0.472-2.807-0.472-4.274c0-10.915,8.879-19.764,19.826-19.764
			c7.53,0,14.087,4.188,17.443,10.352c2.009-1.104,4.32-1.735,6.784-1.735c7.769,0,14.065,6.28,14.065,14.022
			c0,0.206-0.006,0.409-0.011,0.611h0.043c6.632,0,12.014,5.36,12.014,11.973c0,6.61-5.382,11.973-12.014,11.973h-53.382
			c-6.638,0-12.013-5.363-12.013-11.973C3297.465,1393.998,3300.669,1389.642,3305.18,1387.915z"/>
		<g>
			<g>
				<path style="fill:#82CFD0;" d="M3447.236,1360.388l-0.547,0.043l-20.016,1.513l-20.346-1.541l-0.217-0.016
					c-12.69,3.971-16.902,10.885-17.384,11.735h18.873h37.811h19.209C3464.144,1371.272,3459.926,1364.359,3447.236,1360.388z"/>
				<path style="fill:#82CFD0;" d="M3464.139,1373.181h-74.93c2.82,5.065,7.006,8.549,11.58,10.961l0.244,7.658
					c0,0,3.118-2.699,6.204-4.975c6.844,2.192,13.557,2.561,17.151,2.574v3.107c0,1.069,0.834,1.941,1.862,1.941
					c1.029,0,1.857-0.872,1.857-1.941v-3.116c3.351,0.043,10.769-0.198,18.294-2.664c3.123,2.295,6.34,5.073,6.34,5.073l0.248-7.888
					C3457.393,1381.513,3461.409,1378.086,3464.139,1373.181z"/>
				<path style="fill:#EEECEC;" d="M3406.105,1366.684c0,1.137-0.882,2.057-1.976,2.057c-1.088,0-1.976-0.92-1.976-2.057
					c0-1.14,0.888-2.063,1.976-2.063C3405.224,1364.622,3406.105,1365.544,3406.105,1366.684z"/>
				<path style="fill:#EEECEC;" d="M3451.924,1366.684c0,1.137-0.888,2.057-1.976,2.057c-1.094,0-1.976-0.92-1.976-2.057
					c0-1.14,0.882-2.063,1.976-2.063C3451.036,1364.622,3451.924,1365.544,3451.924,1366.684z"/>
				<path style="fill:#EEECEC;" d="M3417.567,1367.149c0,1.137-0.888,2.063-1.981,2.063s-1.977-0.926-1.977-2.063
					c0-1.137,0.883-2.063,1.977-2.063S3417.567,1366.013,3417.567,1367.149z"/>
				<path style="fill:#EEECEC;" d="M3440.469,1367.149c0,1.137-0.883,2.063-1.977,2.063c-1.088,0-1.977-0.926-1.977-2.063
					c0-1.137,0.889-2.063,1.977-2.063C3439.586,1365.087,3440.469,1366.013,3440.469,1367.149z"/>
				<path style="fill:#EEECEC;" d="M3429.013,1367.696c0,1.143-0.883,2.068-1.971,2.068c-1.094,0-1.981-0.926-1.981-2.068
					c0-1.131,0.888-2.057,1.981-2.057C3428.13,1365.639,3429.013,1366.565,3429.013,1367.696z"/>
			</g>
			<path style="fill:#EEECEC;" d="M3427.426,1341.528v-3.63c0.715-0.309,1.224-1.042,1.224-1.903c0-1.137-0.882-2.06-1.976-2.06
				c-1.088,0-1.971,0.923-1.971,2.06c0,0.861,0.503,1.6,1.224,1.903v3.611c-9.897,0.292-18.018,7.888-19.599,17.812l20.346,1.543
				l20.016-1.519C3445.135,1349.527,3437.171,1341.98,3427.426,1341.528z M3411.2,1358.552l-1.96-0.119
				c0-12.882,15.701-15.17,15.701-15.17C3409.814,1349.885,3411.2,1358.552,3411.2,1358.552z"/>
		</g>
		<g>
			<g>
				<path style="fill:#82CFD0;" d="M3867.434,1503.384l-0.552,0.043l-20.01,1.513l-20.346-1.538l-0.217-0.019
					c-12.69,3.971-16.907,10.885-17.384,11.74h18.867h37.812h19.214C3884.336,1514.269,3880.119,1507.354,3867.434,1503.384z"/>
				<path style="fill:#82CFD0;" d="M3884.336,1516.18h-74.929c2.815,5.062,7.006,8.548,11.575,10.958l0.249,7.658
					c0,0,3.118-2.699,6.199-4.973c6.849,2.19,13.557,2.558,17.157,2.572v3.107c0,1.072,0.833,1.941,1.856,1.941
					c1.034,0,1.868-0.869,1.868-1.941v-3.113c3.34,0.043,10.757-0.2,18.288-2.664c3.124,2.298,6.334,5.07,6.334,5.07l0.249-7.891
					C3877.591,1524.512,3881.603,1521.084,3884.336,1516.18z"/>
				<path style="fill:#EEECEC;" d="M3826.305,1509.677c0,1.137-0.883,2.063-1.977,2.063s-1.976-0.926-1.976-2.063
					c0-1.137,0.882-2.06,1.976-2.06S3826.305,1508.541,3826.305,1509.677z"/>
				<path style="fill:#EEECEC;" d="M3872.123,1509.677c0,1.137-0.883,2.063-1.982,2.063c-1.088,0-1.976-0.926-1.976-2.063
					c0-1.137,0.888-2.06,1.976-2.06C3871.24,1507.617,3872.123,1508.541,3872.123,1509.677z"/>
				<path style="fill:#EEECEC;" d="M3837.76,1510.146c0,1.14-0.888,2.063-1.976,2.063c-1.094,0-1.976-0.923-1.976-2.063
					c0-1.137,0.882-2.06,1.976-2.06C3836.872,1508.086,3837.76,1509.009,3837.76,1510.146z"/>
				<path style="fill:#EEECEC;" d="M3860.667,1510.146c0,1.14-0.888,2.063-1.977,2.063c-1.094,0-1.976-0.923-1.976-2.063
					c0-1.137,0.882-2.06,1.976-2.06C3859.779,1508.086,3860.667,1509.009,3860.667,1510.146z"/>
				<path style="fill:#EEECEC;" d="M3849.217,1510.695c0,1.14-0.889,2.063-1.982,2.063s-1.976-0.923-1.976-2.063
					c0-1.137,0.882-2.058,1.976-2.058S3849.217,1509.558,3849.217,1510.695z"/>
			</g>
			<path style="fill:#EEECEC;" d="M3847.625,1484.524v-3.63c0.714-0.309,1.223-1.042,1.223-1.903c0-1.137-0.888-2.063-1.976-2.063
				c-1.099,0-1.981,0.926-1.981,2.063c0,0.861,0.509,1.597,1.229,1.903v3.611c-9.891,0.29-18.018,7.891-19.593,17.814l20.346,1.538
				l20.01-1.516C3865.334,1492.523,3857.369,1484.979,3847.625,1484.524z M3831.398,1501.551l-1.965-0.124
				c0-12.88,15.706-15.17,15.706-15.17C3830.013,1492.88,3831.398,1501.551,3831.398,1501.551z"/>
		</g>
		<g>
			<g>
				<path style="fill:#82CFD0;" d="M3554.876,1493.723l-0.552,0.041l-20.016,1.519l-20.341-1.543l-0.222-0.016
					c-12.69,3.968-16.902,10.882-17.384,11.737h18.873h37.811h19.214C3571.778,1504.604,3567.561,1497.691,3554.876,1493.723z"/>
				<path style="fill:#82CFD0;" d="M3571.773,1506.519h-74.924c2.814,5.062,7.006,8.546,11.574,10.955l0.244,7.661
					c0,0,3.124-2.696,6.199-4.976c6.854,2.193,13.562,2.561,17.156,2.572v3.107c0,1.072,0.84,1.944,1.862,1.944
					c1.029,0,1.862-0.872,1.862-1.944v-3.113c3.346,0.043,10.764-0.201,18.294-2.664c3.124,2.295,6.335,5.073,6.335,5.073
					l0.248-7.888C3565.032,1514.848,3569.044,1511.418,3571.773,1506.519z"/>
				<path style="fill:#EEECEC;" d="M3513.746,1500.014c0,1.137-0.888,2.063-1.977,2.063c-1.093,0-1.976-0.926-1.976-2.063
					c0-1.137,0.883-2.058,1.976-2.058C3512.858,1497.956,3513.746,1498.876,3513.746,1500.014z"/>
				<path style="fill:#EEECEC;" d="M3559.559,1500.014c0,1.137-0.882,2.063-1.976,2.063c-1.089,0-1.976-0.926-1.976-2.063
					c0-1.137,0.887-2.058,1.976-2.058C3558.677,1497.956,3559.559,1498.876,3559.559,1500.014z"/>
				<path style="fill:#EEECEC;" d="M3525.202,1500.479c0,1.14-0.888,2.063-1.981,2.063c-1.088,0-1.977-0.923-1.977-2.063
					c0-1.131,0.889-2.057,1.977-2.057C3524.314,1498.422,3525.202,1499.348,3525.202,1500.479z"/>
				<path style="fill:#EEECEC;" d="M3548.104,1500.479c0,1.14-0.883,2.063-1.977,2.063c-1.088,0-1.977-0.923-1.977-2.063
					c0-1.131,0.889-2.057,1.977-2.057C3547.221,1498.422,3548.104,1499.348,3548.104,1500.479z"/>
				<path style="fill:#EEECEC;" d="M3536.652,1501.034c0,1.137-0.883,2.06-1.976,2.06c-1.094,0-1.977-0.923-1.977-2.06
					c0-1.14,0.883-2.06,1.977-2.06C3535.77,1498.974,3536.652,1499.895,3536.652,1501.034z"/>
			</g>
			<path style="fill:#EEECEC;" d="M3535.061,1474.86v-3.627c0.721-0.309,1.229-1.045,1.229-1.906c0-1.137-0.888-2.057-1.981-2.057
				c-1.088,0-1.977,0.92-1.977,2.057c0,0.861,0.509,1.597,1.229,1.906v3.611c-9.897,0.287-18.018,7.888-19.594,17.812l20.341,1.538
				l20.016-1.513C3552.775,1482.859,3544.812,1475.313,3535.061,1474.86z M3518.841,1491.887l-1.96-0.125
				c0-12.88,15.695-15.165,15.695-15.165C3517.455,1483.219,3518.841,1491.887,3518.841,1491.887z"/>
		</g>
		<g>
			<g>
				<path style="fill:#82CFD0;" d="M3982.67,1341.861l-0.552,0.038l-20.011,1.516l-20.351-1.543l-0.211-0.011
					c-12.69,3.968-16.908,10.879-17.384,11.734h18.867h37.816h19.209C3999.572,1352.74,3995.355,1345.83,3982.67,1341.861z"/>
				<path style="fill:#82CFD0;" d="M3999.567,1354.651h-74.924c2.82,5.065,7.005,8.552,11.575,10.961l0.243,7.661
					c0,0,3.124-2.702,6.204-4.981c6.85,2.198,13.557,2.566,17.157,2.574v3.108c0,1.072,0.834,1.941,1.862,1.941
					c1.029,0,1.857-0.869,1.857-1.941v-3.11c3.346,0.038,10.763-0.203,18.293-2.669c3.124,2.301,6.335,5.079,6.335,5.079
					l0.254-7.894C3992.826,1362.981,3996.838,1359.554,3999.567,1354.651z"/>
				<path style="fill:#EEECEC;" d="M3941.54,1348.152c0,1.137-0.882,2.057-1.976,2.057c-1.088,0-1.977-0.92-1.977-2.057
					c0-1.137,0.889-2.063,1.977-2.063C3940.658,1346.089,3941.54,1347.015,3941.54,1348.152z"/>
				<path style="fill:#EEECEC;" d="M3987.358,1348.152c0,1.137-0.888,2.057-1.976,2.057c-1.094,0-1.982-0.92-1.982-2.057
					c0-1.137,0.889-2.063,1.982-2.063C3986.471,1346.089,3987.358,1347.015,3987.358,1348.152z"/>
				<path style="fill:#EEECEC;" d="M3952.996,1348.618c0,1.137-0.888,2.063-1.981,2.063c-1.088,0-1.971-0.926-1.971-2.063
					c0-1.137,0.883-2.063,1.971-2.063C3952.108,1346.555,3952.996,1347.481,3952.996,1348.618z"/>
				<path style="fill:#EEECEC;" d="M3975.902,1348.618c0,1.137-0.882,2.063-1.976,2.063s-1.977-0.926-1.977-2.063
					c0-1.137,0.883-2.063,1.977-2.063S3975.902,1347.481,3975.902,1348.618z"/>
				<path style="fill:#EEECEC;" d="M3964.447,1349.17c0,1.137-0.883,2.063-1.971,2.063c-1.1,0-1.982-0.926-1.982-2.063
					s0.883-2.063,1.982-2.063C3963.564,1347.107,3964.447,1348.033,3964.447,1349.17z"/>
			</g>
			<path style="fill:#EEECEC;" d="M3962.855,1322.996v-3.625c0.72-0.309,1.229-1.045,1.229-1.909c0-1.137-0.888-2.06-1.977-2.06
				c-1.093,0-1.976,0.923-1.976,2.06c0,0.864,0.509,1.6,1.224,1.909v3.605c-9.892,0.292-18.018,7.888-19.599,17.812l20.351,1.543
				l20.011-1.516C3980.569,1330.995,3972.605,1323.448,3962.855,1322.996z M3946.635,1340.021l-1.96-0.119
				c0-12.88,15.7-15.17,15.7-15.17C3945.254,1331.353,3946.635,1340.021,3946.635,1340.021z"/>
		</g>
		<path style="fill:#FFFFFF;" d="M3945.422,1373.543c0.211-0.958,0.325-1.943,0.325-2.958c0-7.55-6.134-13.667-13.708-13.667
			c-5.209,0-9.734,2.896-12.057,7.157c-1.392-0.764-2.994-1.202-4.689-1.202c-5.375,0-9.729,4.348-9.729,9.699
			c0,0.144,0,0.284,0.011,0.425h-0.032c-4.586,0-8.305,3.706-8.305,8.278c0,4.572,3.719,8.275,8.305,8.275h36.907
			c4.591,0,8.305-3.703,8.305-8.275C3950.755,1377.745,3948.541,1374.732,3945.422,1373.543z"/>
		<g>
			<g>
				<g>
					<path style="fill:#82CFD0;" d="M3694.16,1381.334l-0.547,0.038l-20.015,1.516l-20.346-1.543l-0.217-0.011
						c-12.69,3.969-16.902,10.879-17.379,11.732h18.868h37.811h19.209C3711.068,1392.213,3706.852,1385.303,3694.16,1381.334z"/>
					<path style="fill:#82CFD0;" d="M3711.063,1394.125h-74.929c2.821,5.065,7.011,8.546,11.581,10.958l0.243,7.658
						c0,0,3.118-2.696,6.199-4.976c6.849,2.193,13.562,2.561,17.156,2.574v3.108c0,1.072,0.834,1.941,1.862,1.941
						c1.029,0,1.863-0.869,1.863-1.941v-3.11c3.346,0.038,10.757-0.203,18.288-2.669c3.124,2.301,6.334,5.073,6.334,5.073
						l0.255-7.888C3704.317,1402.454,3708.334,1399.027,3711.063,1394.125z"/>
					<path style="fill:#EEECEC;" d="M3653.031,1387.625c0,1.137-0.883,2.058-1.971,2.058c-1.094,0-1.977-0.92-1.977-2.058
						c0-1.137,0.883-2.063,1.977-2.063C3652.148,1385.563,3653.031,1386.488,3653.031,1387.625z"/>
					<path style="fill:#EEECEC;" d="M3698.85,1387.625c0,1.137-0.883,2.058-1.977,2.058s-1.977-0.92-1.977-2.058
						c0-1.137,0.883-2.063,1.977-2.063S3698.85,1386.488,3698.85,1387.625z"/>
					<path style="fill:#EEECEC;" d="M3664.486,1388.091c0,1.137-0.882,2.063-1.976,2.063c-1.088,0-1.976-0.926-1.976-2.063
						s0.888-2.063,1.976-2.063C3663.604,1386.028,3664.486,1386.954,3664.486,1388.091z"/>
					<path style="fill:#EEECEC;" d="M3687.394,1388.091c0,1.137-0.883,2.063-1.977,2.063c-1.088,0-1.971-0.926-1.971-2.063
						s0.883-2.063,1.971-2.063C3686.511,1386.028,3687.394,1386.954,3687.394,1388.091z"/>
					<path style="fill:#EEECEC;" d="M3675.942,1388.638c0,1.143-0.888,2.068-1.976,2.068c-1.094,0-1.981-0.926-1.981-2.068
						c0-1.131,0.888-2.057,1.981-2.057C3675.055,1386.581,3675.942,1387.506,3675.942,1388.638z"/>
				</g>
				<path style="fill:#EEECEC;" d="M3674.352,1362.469v-3.625c0.72-0.309,1.223-1.045,1.223-1.908c0-1.137-0.882-2.06-1.976-2.06
					s-1.977,0.923-1.977,2.06c0,0.863,0.509,1.6,1.229,1.908v3.605c-9.896,0.292-18.018,7.894-19.599,17.812l20.346,1.543
					l20.015-1.519C3692.061,1370.468,3684.102,1362.921,3674.352,1362.469z M3658.131,1379.494l-1.965-0.119
					c0-12.88,15.7-15.17,15.7-15.17C3656.745,1370.826,3658.131,1379.494,3658.131,1379.494z"/>
			</g>
			<path style="fill:#F38020;" d="M3697.848,1421.841c19.382-4.916,39.381-0.584,39.381-0.584
				c-16.956-3.679-28.336-13.27-34.238-19.55c8.316-11.803,19.291-19.304,19.291-19.304c-8.998,6.147-18.04,8.338-24.834,8.99
				c-4.775-20.265-0.602-41.235-0.602-41.235c-3.519,17.641-12.695,29.503-18.721,35.672c-10.736-8.562-17.515-19.333-17.515-19.333
				c5.761,9.155,7.894,18.354,8.575,25.373c-19.474,5.038-39.678,0.661-39.678,0.661c16.701,3.627,28.006,12.999,33.982,19.279
				c-8.256,11.464-18.873,18.721-18.873,18.721c8.625-5.896,17.287-8.148,23.974-8.9c4.899,20.365,0.677,41.563,0.677,41.563
				c3.573-17.917,12.982-29.88,18.997-35.959c11.104,8.635,18.137,19.815,18.137,19.815
				C3700.685,1437.961,3698.541,1428.839,3697.848,1421.841z"/>
			<path style="fill:#EEB31F;" d="M3693.982,1417.808c14.211-3.603,28.867-0.428,28.867-0.428
				c-12.426-2.696-20.769-9.724-25.094-14.325c6.096-8.652,14.136-14.152,14.136-14.152c-6.595,4.51-13.216,6.118-18.196,6.589
				c-3.503-14.848-0.444-30.215-0.444-30.215c-2.577,12.929-9.301,21.624-13.714,26.144c-7.877-6.28-12.836-14.171-12.836-14.171
				c4.217,6.71,5.782,13.451,6.28,18.6c-14.271,3.687-29.084,0.482-29.084,0.482c12.246,2.653,20.53,9.523,24.909,14.127
				c-6.053,8.4-13.826,13.719-13.826,13.719c6.317-4.323,12.662-5.969,17.563-6.521c3.595,14.926,0.498,30.459,0.498,30.459
				c2.62-13.129,9.512-21.896,13.925-26.355c8.132,6.329,13.291,14.52,13.291,14.52
				C3696.066,1429.627,3694.496,1422.935,3693.982,1417.808z"/>
			<path style="fill:#F7CB6B;" d="M3690.701,1414.381c9.805-2.485,19.918-0.292,19.918-0.292c-8.57-1.857-14.325-6.713-17.314-9.892
				c4.207-5.966,9.757-9.764,9.757-9.764c-4.548,3.11-9.123,4.22-12.556,4.548c-2.42-10.251-0.309-20.854-0.309-20.854
				c-1.781,8.925-6.421,14.923-9.463,18.042c-5.441-4.331-8.863-9.778-8.863-9.778c2.913,4.629,3.99,9.28,4.337,12.831
				c-9.854,2.553-20.075,0.336-20.075,0.336c8.457,1.835,14.168,6.575,17.195,9.75c-4.18,5.798-9.545,9.475-9.545,9.475
				c4.357-2.989,8.743-4.128,12.121-4.504c2.48,10.303,0.347,21.022,0.347,21.022c1.804-9.063,6.562-15.113,9.61-18.191
				c5.608,4.367,9.171,10.027,9.171,10.027C3692.142,1422.534,3691.053,1417.924,3690.701,1414.381z"/>
		</g>
		<g>
			<path style="fill:#F7CB6B;" d="M3681.481,1608.522h1.537v10.43h-1.537V1608.522z"/>
			<path style="fill:#F7CB6B;" d="M3681.481,1593.878h1.537v10.43h-1.537V1593.878z"/>
			<path style="fill:#F7CB6B;" d="M3681.481,1579.236h1.537v10.427h-1.537V1579.236z"/>
			<path style="fill:#F7CB6B;" d="M3681.481,1564.591h1.537v10.428h-1.537V1564.591z"/>
			<path style="fill:#F7CB6B;" d="M3681.481,1549.946h1.537v10.433h-1.537V1549.946z"/>
			<path style="fill:#F7CB6B;" d="M3681.481,1535.299h1.537v10.43h-1.537V1535.299z"/>
			<path style="fill:#F7CB6B;" d="M3681.481,1520.657h1.537v10.427h-1.537V1520.657z"/>
			<path style="fill:#F7CB6B;" d="M3681.481,1506.012h1.537v10.427h-1.537V1506.012z"/>
			<path style="fill:#F7CB6B;" d="M3681.481,1491.367h1.537v10.427h-1.537V1491.367z"/>
			<path style="fill:#F7CB6B;" d="M3681.481,1476.723h1.537v10.427h-1.537V1476.723z"/>
			<path style="fill:#F7CB6B;" d="M3681.481,1462.078h1.537v10.427h-1.537V1462.078z"/>
		</g>
		<g>
			<path style="fill:#275768;" d="M3954.664,1756.607c-13.113-1.57-27.498-1.7-42.094-0.076
				c-46.1,5.138-76.759,25.765-68.492,46.083c0.217,0.536,0.477,1.067,0.742,1.592l-0.271,0.033
				c-21.515,2.393-39.099,8.744-49.456,16.848c-7.872,6.15-11.563,13.313-9.675,20.514l87.977-9.794l181.26-20.184v-94.427
				c-2.523,0.208-5.057,0.452-7.591,0.736C4002.383,1722.906,3967.993,1738.216,3954.664,1756.607z"/>
			<g>
				<path style="fill:#1E485B;" d="M3908.748,1797.797c-12.197-2.967-26.22-4.656-41.141-4.656
					c-47.129,0-85.329,16.837-85.329,37.616c0,0.087,0,0.182,0,0.271c9.388,3.205,17.741,6.941,24.866,11.069h247.51v-69.042
					c-12.555-1.96-26.063-3.021-40.129-3.021C3968.838,1770.034,3929.104,1781.26,3908.748,1797.797z"/>
				<path style="fill:#275768;" d="M3782.278,1831.028c-12.247-4.185-26.263-7.466-41.612-9.534
					c-44.242-5.953-88.068-0.255-115.663,13.104c-10.405-4.458-23.172-7.923-37.622-9.872c-7.428-0.994-14.834-1.53-22.078-1.641
					c10.141,5.16,16.61,11.759,17.623,19.011h146.983h77.235C3800.02,1837.969,3791.666,1834.233,3782.278,1831.028z"/>
				<path style="fill:#1E485B;" d="M3565.303,1823.085c-13.361-6.794-33.084-11.099-55.081-11.099h-0.276
					c0.049-0.536,0.092-1.083,0.092-1.632c0-20.773-38.206-37.613-85.334-37.613c-14.921,0-28.938,1.689-41.146,4.653
					c-20.356-16.531-60.089-27.766-105.767-27.766c-13.514,0-26.501,0.985-38.623,2.794v89.674h253.812h89.947
					C3581.913,1834.845,3575.443,1828.245,3565.303,1823.085z"/>
			</g>
			<path style="fill:#275768;" d="M3481.836,1832.035c-15.846-5.127-36.879-7.095-58.362-4.613l-0.271,0.033
				c-0.173-0.536-0.357-1.072-0.584-1.608c-8.576-20.281-52.83-32.413-98.849-27.086c-14.569,1.678-27.557,4.916-38.249,9.193
				c-12.377-6.421-28.343-11.25-46.354-14.079v48.222h262.154C3496.567,1838.044,3489.871,1834.634,3481.836,1832.035z"/>
		</g>
	</g>
	<g>
		<g>
			<rect x="4130.174" y="2943.844" style="fill:#00A4A1;" width="186.488" height="284.685"/>
			<g>
				<path style="fill:#01B9AF;" d="M4169.002,2984.143v102.045c0,15.021,12.182,27.208,27.211,27.208
					c0.893,0,1.775-0.055,2.642-0.136v-156.192c-0.866-0.084-1.749-0.133-2.642-0.133
					C4181.184,2956.935,4169.002,2969.11,4169.002,2984.143z"/>
				<path style="fill:#FFFFFF;" d="M4380.434,3339.417v-318.026c0,0-1.604-128.265-163.09-137.244
					c-5.858-0.324-11.9-0.512-18.191-0.512c-0.092,0-0.2,0.006-0.298,0.006v73.427c13.778,1.322,24.563,12.936,24.563,27.075
					v102.045c0,14.128-10.785,25.746-24.563,27.072v394.647c4.396-0.044,8.728-0.146,12.918-0.353
					c144.477-7.121,162.229-109.033,164.405-132.541C4380.715,3354.211,4380.434,3339.417,4380.434,3339.417z"/>
				<path style="fill:#E5E6E6;" d="M4196.213,3113.396c-15.029,0-27.211-12.187-27.211-27.208v-102.045
					c0-15.032,12.182-27.208,27.211-27.208c0.893,0,1.775,0.049,2.642,0.133v-73.427c-5.479,0.003-10.806,0.139-15.954,0.39
					c-144.467,7.12-162.229,109.034-164.406,132.542c-4.542,20.801-4.256,35.597-4.256,35.597v318.021
					c0,0,1.604,128.268,163.096,137.246c5.848,0.325,11.889,0.512,18.18,0.512c1.127,0,2.226-0.032,3.341-0.04V3113.26
					C4197.988,3113.341,4197.105,3113.396,4196.213,3113.396z"/>
			</g>
		</g>
	</g>
	<g>
		<g>
			<path style="fill:#FFFFFF;" d="M4276.631,3925.834c0,13.291-10.779,24.065-24.059,24.065h-170.453
				c-13.291,0-24.07-10.774-24.07-24.065v-170.452c0-13.292,10.779-24.06,24.07-24.06h170.453c13.279,0,24.059,10.768,24.059,24.06
				V3925.834z"/>
			<polygon style="fill:#475059;" points="4207.853,3830.706 4167.627,3777.773 4126.833,3830.706 4158.25,3830.706 
				4158.25,3903.442 4176.441,3903.442 4176.441,3830.706 			"/>
		</g>
		<g>
			<path style="fill:#FFFFFF;" d="M4332.779,4182.686c-13.291,0-24.064-10.776-24.064-24.064v-170.453
				c0-13.291,10.773-24.06,24.064-24.06h170.453c13.285,0,24.07,10.769,24.07,24.06v170.453c0,13.288-10.785,24.064-24.07,24.064
				H4332.779z"/>
			<polygon style="fill:#475059;" points="4427.914,4113.901 4480.846,4073.679 4427.914,4032.885 4427.914,4064.302 
				4355.172,4064.302 4355.172,4082.487 4427.914,4082.487 			"/>
		</g>
		<g>
			<path style="fill:#FFFFFF;" d="M3995.891,3964.108c13.286,0,24.061,10.769,24.061,24.06v170.453
				c0,13.288-10.774,24.064-24.061,24.064h-170.458c-13.286,0-24.06-10.776-24.06-24.064v-170.453
				c0-13.291,10.773-24.06,24.06-24.06H3995.891z"/>
			<polygon style="fill:#475059;" points="3900.763,4032.885 3847.825,4073.11 3900.763,4113.898 3900.763,4082.487 
				3973.499,4082.487 3973.499,4064.302 3900.763,4064.302 			"/>
		</g>
		<g>
			<path style="fill:#FFFFFF;" d="M4055.044,3988.168c0-13.291,10.773-24.06,24.065-24.06h170.452
				c13.292,0,24.07,10.769,24.07,24.06v170.453c0,13.288-10.778,24.064-24.07,24.064h-170.452
				c-13.292,0-24.065-10.776-24.065-24.064V3988.168z"/>
			<polygon style="fill:#475059;" points="4123.822,4083.299 4164.049,4136.226 4204.842,4083.299 4173.431,4083.299 
				4173.431,4010.563 4155.24,4010.563 4155.24,4083.299 			"/>
		</g>
	</g>
	<g>
		<g>
			<path style="fill:#FFFFFF;" d="M2820.246,4021.158l0.764-1.349h-758.501l0.758,1.349
				c-131.626,13.361-234.327,124.515-234.327,259.663c0,144.149,116.847,261.004,261.012,261.004
				c110.32,0,204.453-68.56,242.635-165.31h218.332c38.201,96.75,132.322,165.31,242.659,165.31
				c144.141,0,261.001-116.854,261.001-261.004C3054.578,4145.673,2951.865,4034.52,2820.246,4021.158z"/>
			<polygon style="fill:#6DBAC1;" points="2188.716,4221.377 2127.806,4221.377 2127.806,4160.464 2032.114,4160.464 
				2032.114,4221.377 1971.215,4221.377 1971.215,4317.068 2032.114,4317.068 2032.114,4377.975 2127.806,4377.975 
				2127.806,4317.068 2188.716,4317.068 			"/>
			<g>
				<path style="fill:#6DBAC1;" d="M2863.817,4180.696c0,33.901-27.481,61.367-61.389,61.367s-61.372-27.466-61.372-61.367
					c0-33.907,27.465-61.381,61.372-61.381S2863.817,4146.789,2863.817,4180.696z"/>
				<path style="fill:#DD665E;" d="M2863.817,4398.326c0,33.896-27.481,61.372-61.389,61.372s-61.372-27.476-61.372-61.372
					c0-33.908,27.465-61.378,61.372-61.378S2863.817,4364.418,2863.817,4398.326z"/>
			</g>
			<g>
				<path style="fill:#3B4450;" d="M2911.249,4350.881c-33.907,0-61.383-27.459-61.383-61.364c0-33.907,27.476-61.384,61.383-61.384
					c33.897,0,61.389,27.477,61.389,61.384C2972.638,4323.422,2945.146,4350.881,2911.249,4350.881z"/>
				<path style="fill:#3B4450;" d="M2693.625,4350.881c-33.908,0-61.379-27.459-61.379-61.364c0-33.907,27.471-61.384,61.379-61.384
					c33.88,0,61.383,27.477,61.383,61.384C2755.008,4323.422,2727.505,4350.881,2693.625,4350.881z"/>
			</g>
		</g>
		<g>
			<path style="fill:#DD665E;" d="M2409.09,4259.854c0,12.024-9.743,21.78-21.789,21.78h-62.623
				c-12.027,0-21.767-9.756-21.767-21.78l0,0c0-12.024,9.739-21.78,21.767-21.78h62.623
				C2399.348,4238.073,2409.09,4247.829,2409.09,4259.854L2409.09,4259.854z"/>
			<path style="fill:#6DBAC1;" d="M2580.608,4259.854c0,12.024-9.751,21.78-21.786,21.78h-62.624
				c-12.024,0-21.777-9.756-21.777-21.78l0,0c0-12.024,9.753-21.78,21.777-21.78h62.624
				C2570.857,4238.073,2580.608,4247.829,2580.608,4259.854L2580.608,4259.854z"/>
		</g>
		<path style="fill:#FFFFFF;" d="M2544.66,4009.994c0,24.623-19.978,44.59-44.601,44.59h-116.62
			c-24.62,0-44.576-19.967-44.576-44.59l0,0c0-24.628,19.956-44.595,44.576-44.595h116.62
			C2524.683,3965.399,2544.66,3985.366,2544.66,4009.994L2544.66,4009.994z"/>
	</g>
</g>
<g>
	<g>
		<path style="fill:#6DBAC1;" d="M778.046,569.888c-19.124,6.51-55.337,15.463-91.55,15.463c-50.048,0-86.262-12.615-111.489-37.027
			c-25.227-23.599-39.062-59.406-38.654-99.689c0.407-91.144,66.729-143.226,156.654-143.226c35.399,0,62.661,6.916,76.088,13.429
			l-13.021,49.641c-15.055-6.51-33.772-11.799-63.882-11.799c-51.675,0-90.737,29.295-90.737,88.701
			c0,56.557,35.399,89.924,86.261,89.924c14.241,0,25.635-1.63,30.517-4.068v-57.372h-42.317V425.44h102.13V569.888z"/>
		<path style="fill:#6DBAC1;" d="M890.346,512.11l-19.531,70.392h-64.288l83.818-274.246h81.378l85.041,274.246h-66.731
			l-21.158-70.392H890.346z M959.925,465.724l-17.089-58.184c-4.883-16.277-9.765-36.621-13.834-52.897h-0.813
			c-4.07,16.276-8.139,37.026-12.614,52.897l-16.276,58.184H959.925z"/>
		<path style="fill:#6DBAC1;" d="M1325.312,477.522c-1.221-32.957-2.441-72.834-2.441-112.707h-1.221
			c-8.544,34.993-19.938,74.055-30.517,106.197l-33.365,107.015h-48.421l-29.296-106.2c-8.951-32.145-18.31-71.207-24.82-107.012
			h-0.813c-1.628,37.025-2.848,79.344-4.882,113.522l-4.883,104.164h-57.372l17.497-274.246h82.599l26.854,91.553
			c8.544,31.736,17.089,65.915,23.192,98.06h1.221c7.731-31.736,17.09-67.95,26.041-98.469l29.296-91.144h80.972l15.055,274.246
			h-60.627L1325.312,477.522z"/>
		<path style="fill:#6DBAC1;" d="M1600.777,466.538h-100.91v65.103h112.709v50.861h-174.964V308.256h169.267v50.861h-107.012v56.966
			h100.91V466.538z"/>
		<path style="fill:#6DBAC1;" d="M1737.084,311.919c22.786-3.663,52.489-5.696,83.82-5.696c52.083,0,85.854,9.358,112.303,29.295
			c28.481,21.161,46.385,54.931,46.385,103.352c0,52.488-19.125,88.702-45.572,111.08c-28.891,24.006-72.834,35.4-126.544,35.4
			c-32.144,0-54.93-2.033-70.392-4.069V311.919z M1799.339,535.71c5.289,1.221,13.834,1.221,21.565,1.221
			c56.151,0.406,92.772-30.516,92.772-96.027c0.406-56.963-32.958-87.076-86.262-87.076c-13.834,0-22.786,1.221-28.075,2.442V535.71
			z"/>
		<path style="fill:#6DBAC1;" d="M2183.445,466.538h-100.908v65.103h112.71v50.861h-174.965V308.256h169.267v50.861h-107.012v56.966
			h100.908V466.538z"/>
		<path style="fill:#6DBAC1;" d="M2305.102,582.502l-87.887-274.246h67.95l33.366,115.964c9.358,32.552,17.901,63.885,24.411,98.063
			h1.221c6.919-32.959,15.462-65.511,24.82-96.842l34.993-117.185h65.918l-92.365,274.246H2305.102z"/>
		<path style="fill:#6DBAC1;" d="M2662.348,466.538h-100.91v65.103h112.713v50.861h-174.962V308.256h169.267v50.861h-107.018v56.966
			h100.91V466.538z"/>
		<path style="fill:#6DBAC1;" d="M2716.466,308.256h62.25V530.42h109.048v52.082h-171.298V308.256z"/>
		<path style="fill:#6DBAC1;" d="M3159.972,442.53c0,89.926-54.519,144.446-134.678,144.446
			c-81.377,0-128.987-61.441-128.987-139.564c0-82.191,52.488-143.632,133.459-143.632
			C3113.996,303.781,3159.972,366.849,3159.972,442.53z M2961.815,446.192c0,53.712,25.229,91.553,66.732,91.553
			c41.909,0,65.915-39.877,65.915-93.18c0-49.234-23.6-91.55-66.321-91.55C2986.232,353.016,2961.815,392.89,2961.815,446.192z"/>
		<path style="fill:#6DBAC1;" d="M3200.663,311.919c19.122-3.254,45.98-5.696,83.818-5.696c38.25,0,65.509,7.323,83.819,21.973
			c17.498,13.833,29.3,36.62,29.3,63.474c0,26.855-8.954,49.643-25.229,65.103c-21.157,19.939-52.488,28.892-89.107,28.892
			c-8.138,0-15.463-0.409-21.158-1.221v98.06h-61.442V311.919z M3262.105,436.429c5.29,1.221,11.797,1.627,20.752,1.627
			c32.955,0,53.301-16.684,53.301-44.758c0-25.229-17.498-40.282-48.418-40.282c-12.614,0-21.162,1.221-25.635,2.442V436.429z"/>
		<path style="fill:#6DBAC1;" d="M3663.301,477.522c-1.218-32.957-2.441-72.834-2.441-112.707h-1.218
			c-8.549,34.993-19.94,74.055-30.519,106.197l-33.366,107.015h-48.417l-29.301-106.2c-8.949-32.145-18.31-71.207-24.817-107.012
			h-0.812c-1.63,37.025-2.854,79.344-4.884,113.522l-4.884,104.164h-57.371l17.492-274.246h82.601l26.854,91.553
			c8.549,31.736,17.092,65.915,23.193,98.06h1.224c7.73-31.736,17.086-67.95,26.041-98.469l29.295-91.144h80.971l15.057,274.246
			h-60.626L3663.301,477.522z"/>
		<path style="fill:#6DBAC1;" d="M3938.769,466.538h-100.911v65.103h112.708v50.861h-174.963V308.256h169.268v50.861h-107.013
			v56.966h100.911V466.538z"/>
		<path style="fill:#6DBAC1;" d="M3992.887,582.502V308.256h72.422l56.966,100.505c16.28,28.889,32.554,63.066,44.757,93.991h1.224
			c-4.071-36.214-5.29-73.243-5.29-114.337v-80.159h56.967v274.246h-65.104l-58.596-105.791
			c-16.273-29.298-34.178-64.696-47.604-96.843l-1.218,0.409c1.624,36.212,2.437,74.867,2.437,119.627v82.598H3992.887z"/>
		<path style="fill:#6DBAC1;" d="M4326.531,360.338h-73.646v-52.082h210.771v52.082h-74.869v222.164h-62.256V360.338z"/>
	</g>
</g>
</svg>
